<?xml version="1.0" encoding="UTF-8" standalone="no"?>
<svg
   version="1.1"
   width="40.0812mm"
   height="128.5748mm"
   viewBox="0.0000 0.0000 40.0812 128.5748"
   id="svg136"
   sodipodi:docname="EurorackPlaygroundMkIII_plate_print_template-brd.svg"
   inkscape:version="1.3 (0e150ed6c4, 2023-07-21)"
   xmlns:inkscape="http://www.inkscape.org/namespaces/inkscape"
   xmlns:sodipodi="http://sodipodi.sourceforge.net/DTD/sodipodi-0.dtd"
   xmlns="http://www.w3.org/2000/svg"
   xmlns:svg="http://www.w3.org/2000/svg"
   xmlns:rdf="http://www.w3.org/1999/02/22-rdf-syntax-ns#"
   xmlns:cc="http://creativecommons.org/ns#"
   xmlns:dc="http://purl.org/dc/elements/1.1/">
  <defs
     id="defs136" />
  <sodipodi:namedview
     id="namedview136"
     pagecolor="#ffffff"
     bordercolor="#000000"
     borderopacity="0.25"
     inkscape:showpageshadow="2"
     inkscape:pageopacity="0.0"
     inkscape:pagecheckerboard="0"
     inkscape:deskcolor="#d1d1d1"
     inkscape:document-units="mm"
     inkscape:zoom="3.2904485"
     inkscape:cx="75.82553"
     inkscape:cy="242.976"
     inkscape:current-layer="svg136" />
  <title
     id="title1">SVG Image created as EurorackPlaygroundMkIII_plate_print_template-brd.svg date 2024/07/15 14:34:23 </title>
  <desc
     id="desc1">Image generated by PCBNEW </desc>
  <g
     style="fill:#000000; fill-opacity:1.0000;stroke:#000000; stroke-opacity:1.0000; stroke-linecap:round; stroke-linejoin:round;"
     transform="translate(0 0) scale(1 1)"
     id="g1" />
  <g
     style="fill:#000000; fill-opacity:0.0;  stroke:#000000; stroke-width:0.0000; stroke-opacity:1;  stroke-linecap:round; stroke-linejoin:round;"
     id="g11">
    <g
       id="g2" />
    <g
       id="g3" />
    <g
       id="g4" />
    <g
       id="g5" />
    <g
       id="g6" />
    <g
       id="g7" />
    <g
       id="g8" />
    <g
       id="g9" />
    <g
       id="g10" />
  </g>
  <g
     style="fill:#000000; fill-opacity:0.0;  stroke:#000000; stroke-width:0.0000; stroke-opacity:1;  stroke-linecap:round; stroke-linejoin:round;"
     id="g12" />
  <g
     style="fill:#000000; fill-opacity:1.0000;  stroke:#000000; stroke-width:0.1500; stroke-opacity:1;  stroke-linecap:round; stroke-linejoin:round;"
     id="g20" />
  <g
     style="fill:#000000; fill-opacity:1.0000;  stroke:#000000; stroke-width:0.1500; stroke-opacity:1;  stroke-linecap:round; stroke-linejoin:round;"
     id="g25" />
  <g
     style="fill:#000000; fill-opacity:1.0000;  stroke:#000000; stroke-width:0.1500; stroke-opacity:1;  stroke-linecap:round; stroke-linejoin:round;"
     id="g32" />
  <g
     style="fill:#000000; fill-opacity:1.0000;  stroke:#000000; stroke-width:0.1500; stroke-opacity:1;  stroke-linecap:round; stroke-linejoin:round;"
     id="g37" />
  <g
     style="fill:#000000; fill-opacity:1.0000;  stroke:#000000; stroke-width:0.1500; stroke-opacity:1;  stroke-linecap:round; stroke-linejoin:round;"
     id="g39" />
  <g
     style="fill:#000000; fill-opacity:1.0000;  stroke:#000000; stroke-width:0.1500; stroke-opacity:1;  stroke-linecap:round; stroke-linejoin:round;"
     id="g44" />
  <g
     style="fill:#000000; fill-opacity:1.0000;  stroke:#000000; stroke-width:0.1500; stroke-opacity:1;  stroke-linecap:round; stroke-linejoin:round;"
     id="g62" />
  <g
     style="fill:#000000; fill-opacity:1.0000;  stroke:#000000; stroke-width:0.1500; stroke-opacity:1;  stroke-linecap:round; stroke-linejoin:round;"
     id="g67" />
  <g
     style="fill:#000000; fill-opacity:1.0000;  stroke:#000000; stroke-width:0.1500; stroke-opacity:1;  stroke-linecap:round; stroke-linejoin:round;"
     id="g69" />
  <g
     style="fill:#000000; fill-opacity:1.0000;  stroke:#000000; stroke-width:0.1500; stroke-opacity:1;  stroke-linecap:round; stroke-linejoin:round;"
     id="g74" />
  <g
     style="fill:#000000; fill-opacity:1.0000;  stroke:#000000; stroke-width:0.1500; stroke-opacity:1;  stroke-linecap:round; stroke-linejoin:round;"
     id="g81" />
  <g
     style="fill:#000000; fill-opacity:1.0000;  stroke:#000000; stroke-width:0.1500; stroke-opacity:1;  stroke-linecap:round; stroke-linejoin:round;"
     id="g86" />
  <g
     class="stroked-text"
     id="g87"
     style="fill:#000000;fill-opacity:0;stroke:#000000;stroke-width:0.15;stroke-linecap:round;stroke-linejoin:round;stroke-opacity:1">
    <desc
       id="desc86">CURVE 2</desc>
  </g>
  <path
     style="fill:#000000;fill-opacity:1;fill-rule:evenodd;stroke:#000000;stroke-width:0;stroke-linecap:round;stroke-linejoin:round;stroke-opacity:1"
     d="m 12.0928,65.1438 1.0007,0.2031 0.9496,0.3279 0.8891,0.4438 0.8197,0.551 0.741,0.6496 0.6532,0.7392 0.5563,0.8203 0.4502,0.8925 0.3349,0.956 0.2106,1.0107 0.0674,0.7141 -0.0181,1.0646 -0.1574,1.0307 -0.292,0.9875 -0.422,0.9351 -0.5475,0.8733 -0.6682,0.8022 -0.7843,0.7219 -0.4791,0.3593 -0.2303,0.1561 -0.1555,0.0725 -0.1161,-0.0212 -0.1117,-0.1248 -0.1426,-0.2384 -0.0397,-0.0698 -0.1947,-0.3424 0.4203,-0.2779 0.7014,-0.5476 0.6321,-0.6623 0.5482,-0.7563 0.4499,-0.8297 0.3372,-0.8826 0.0626,-0.2174 0.0993,-0.5021 0.0596,-0.5896 0.0192,-0.6284 -0.0215,-0.618 -0.0628,-0.5589 -0.063,-0.308 -0.3186,-0.9678 -0.4365,-0.8891 -0.5468,-0.8028 -0.6497,-0.7085 -0.7449,-0.6067 -0.8327,-0.497 -0.9128,-0.3796 -0.4181,-0.126 -0.5484,-0.1071 -0.6359,-0.0592 -0.6733,-0.0114 -0.6602,0.0365 -0.5968,0.0843 -0.2428,0.0559 -0.8395,0.2899 -0.8146,0.4076 -0.7598,0.5057 -0.6752,0.5843 -0.479,0.5363 -0.5487,0.8132 -0.4192,0.8615 -0.2905,0.8962 -0.1625,0.9172 -0.0353,0.9247 0.0909,0.9183 0.2165,0.8985 0.3412,0.865 0.4651,0.8178 0.5883,0.7569 0.2845,0.2974 0.2807,0.2614 0.3017,0.2574 0.2717,0.2106 0.0858,0.0595 0.4203,0.2779 L 7.499,79.001 7.3446,79.2661 7.2291,79.4154 7.1171,79.4587 6.9735,79.406 6.7631,79.2671 6.7031,79.2251 5.8706,78.5672 5.1624,77.8425 4.5671,77.0382 4.1943,76.3874 3.792,75.4913 3.5181,74.6122 3.3649,73.7143 3.3246,72.762 3.3354,72.416 3.4549,71.3823 3.706,70.3957 4.0792,69.4651 4.5652,68.5994 5.1547,67.8075 5.8381,67.0985 6.6063,66.4811 7.4497,65.9643 8.3591,65.557 9.325,65.2681 10.3381,65.1067 11.05,65.0741 Z"
     id="path93" />
  <path
     style="fill:#000000;fill-opacity:1;fill-rule:evenodd;stroke:#000000;stroke-width:0;stroke-linecap:round;stroke-linejoin:round;stroke-opacity:1"
     d="m 12.0928,14.1438 1.0007,0.2031 0.9496,0.3279 0.8891,0.4438 0.8197,0.551 0.741,0.6496 0.6532,0.7392 0.5563,0.8203 0.4502,0.8925 0.3349,0.956 0.2106,1.0107 0.0674,0.7141 -0.0181,1.0646 -0.1574,1.0307 -0.292,0.9875 -0.422,0.9351 -0.5475,0.8733 -0.6682,0.8022 -0.7843,0.7219 -0.4791,0.3593 -0.2303,0.1561 -0.1555,0.0725 -0.1161,-0.0212 -0.1117,-0.1248 -0.1426,-0.2384 -0.0397,-0.0698 -0.1947,-0.3424 0.4203,-0.2779 0.7014,-0.5476 0.6321,-0.6623 0.5482,-0.7563 0.4499,-0.8297 0.3372,-0.8826 0.0626,-0.2174 0.0993,-0.5021 0.0596,-0.5896 0.0192,-0.6284 -0.0215,-0.618 -0.0628,-0.5589 -0.063,-0.308 -0.3186,-0.9678 -0.4365,-0.8891 -0.5468,-0.8028 -0.6497,-0.7085 -0.7449,-0.6067 -0.8327,-0.497 -0.9128,-0.3796 -0.4181,-0.126 -0.5484,-0.1071 -0.6359,-0.0592 -0.6733,-0.0114 -0.6602,0.0365 -0.5968,0.0843 -0.2428,0.0559 -0.8395,0.2899 -0.8146,0.4076 -0.7598,0.5057 -0.6752,0.5843 -0.479,0.5363 -0.5487,0.8132 -0.4192,0.8615 -0.2905,0.8962 -0.1625,0.9172 -0.0353,0.9247 0.0909,0.9183 0.2165,0.8985 0.3412,0.865 0.4651,0.8178 0.5883,0.7569 0.2845,0.2974 0.2807,0.2614 0.3017,0.2574 0.2717,0.2106 0.0858,0.0595 0.4203,0.2779 L 7.499,28.001 7.3446,28.2661 7.2291,28.4154 7.1171,28.4587 6.9735,28.406 6.7631,28.2671 6.7031,28.2251 5.8706,27.5672 5.1624,26.8425 4.5671,26.0382 4.1943,25.3874 3.792,24.4913 3.5181,23.6122 3.3649,22.7143 3.3246,21.762 3.3354,21.416 3.4549,20.3823 3.706,19.3957 4.0792,18.4651 4.5652,17.5994 5.1547,16.8075 5.8381,16.0985 6.6063,15.4811 7.4497,14.9643 8.3591,14.557 9.325,14.2681 10.3381,14.1067 11.05,14.0741 Z"
     id="path94" />
  <path
     style="fill:#000000;fill-opacity:1;fill-rule:evenodd;stroke:#000000;stroke-width:0;stroke-linecap:round;stroke-linejoin:round;stroke-opacity:1"
     d="m 12.0928,32.1438 1.0007,0.2031 0.9496,0.3279 0.8891,0.4438 0.8197,0.551 0.741,0.6496 0.6532,0.7392 0.5563,0.8203 0.4502,0.8925 0.3349,0.956 0.2106,1.0107 0.0674,0.7141 -0.0181,1.0646 -0.1574,1.0307 -0.292,0.9875 -0.422,0.9351 -0.5475,0.8733 -0.6682,0.8022 -0.7843,0.7219 -0.4791,0.3593 -0.2303,0.1561 -0.1555,0.0725 -0.1161,-0.0212 -0.1117,-0.1248 -0.1426,-0.2384 -0.0397,-0.0698 -0.1947,-0.3424 0.4203,-0.2779 0.7014,-0.5476 0.6321,-0.6623 0.5482,-0.7563 0.4499,-0.8297 0.3372,-0.8826 0.0626,-0.2174 0.0993,-0.5021 0.0596,-0.5896 0.0192,-0.6284 -0.0215,-0.618 -0.0628,-0.5589 -0.063,-0.308 -0.3186,-0.9678 -0.4365,-0.8891 -0.5468,-0.8028 -0.6497,-0.7085 -0.7449,-0.6067 -0.8327,-0.497 -0.9128,-0.3796 -0.4181,-0.126 -0.5484,-0.1071 -0.6359,-0.0592 -0.6733,-0.0114 -0.6602,0.0365 -0.5968,0.0843 -0.2428,0.0559 -0.8395,0.2899 -0.8146,0.4076 -0.7598,0.5057 -0.6752,0.5843 -0.479,0.5363 -0.5487,0.8132 -0.4192,0.8615 -0.2905,0.8962 -0.1625,0.9172 -0.0353,0.9247 0.0909,0.9183 0.2165,0.8985 0.3412,0.865 0.4651,0.8178 0.5883,0.7569 0.2845,0.2974 0.2807,0.2614 0.3017,0.2574 0.2717,0.2106 0.0858,0.0595 0.4203,0.2779 L 7.499,46.001 7.3446,46.2661 7.2291,46.4154 7.1171,46.4587 6.9735,46.406 6.7631,46.2671 6.7031,46.2251 5.8706,45.5672 5.1624,44.8425 4.5671,44.0382 4.1943,43.3874 3.792,42.4913 3.5181,41.6122 3.3649,40.7143 3.3246,39.762 3.3354,39.416 3.4549,38.3823 3.706,37.3957 4.0792,36.4651 4.5652,35.5994 5.1547,34.8075 5.8381,34.0985 6.6063,33.4811 7.4497,32.9643 8.3591,32.557 9.325,32.2681 10.3381,32.1067 11.05,32.0741 Z"
     id="path95" />
  <path
     style="fill:#000000;fill-opacity:1;fill-rule:evenodd;stroke:#000000;stroke-width:0;stroke-linecap:round;stroke-linejoin:round;stroke-opacity:1"
     d="m 30.0928,14.1438 1.0007,0.2031 0.9496,0.3279 0.8891,0.4438 0.8197,0.551 0.741,0.6496 0.6532,0.7392 0.5563,0.8203 0.4502,0.8925 0.3349,0.956 0.2106,1.0107 0.0674,0.7141 -0.0181,1.0646 -0.1574,1.0307 -0.292,0.9875 -0.422,0.9351 -0.5475,0.8733 -0.6682,0.8022 -0.7843,0.7219 -0.4791,0.3593 -0.2303,0.1561 -0.1555,0.0725 -0.1161,-0.0212 -0.1117,-0.1248 -0.1426,-0.2384 -0.0397,-0.0698 -0.1947,-0.3424 0.4203,-0.2779 0.7014,-0.5476 0.6321,-0.6623 0.5482,-0.7563 0.4499,-0.8297 0.3372,-0.8826 0.0626,-0.2174 0.0993,-0.5021 0.0596,-0.5896 0.0192,-0.6284 -0.0215,-0.618 -0.0628,-0.5589 -0.063,-0.308 -0.3186,-0.9678 -0.4365,-0.8891 -0.5468,-0.8028 -0.6497,-0.7085 -0.7449,-0.6067 -0.8327,-0.497 -0.9128,-0.3796 -0.4181,-0.126 -0.5484,-0.1071 -0.6359,-0.0592 -0.6733,-0.0114 -0.6602,0.0365 -0.5968,0.0843 -0.2428,0.0559 -0.8395,0.2899 -0.8146,0.4076 -0.7598,0.5057 -0.6752,0.5843 -0.479,0.5363 -0.5487,0.8132 -0.4192,0.8615 -0.2905,0.8962 -0.1625,0.9172 -0.0353,0.9247 0.0909,0.9183 0.2165,0.8985 0.3412,0.865 0.4651,0.8178 0.5883,0.7569 0.2845,0.2974 0.2807,0.2614 0.3017,0.2574 0.2717,0.2106 0.0858,0.0595 0.4203,0.2779 -0.1947,0.3424 -0.1544,0.2651 -0.1155,0.1493 -0.112,0.0433 -0.1436,-0.0527 -0.2104,-0.1389 -0.06,-0.042 -0.8325,-0.6579 -0.7082,-0.7247 -0.5953,-0.8043 -0.3728,-0.6508 -0.4023,-0.8961 -0.2739,-0.8791 -0.1532,-0.8979 -0.0403,-0.9523 0.0108,-0.346 0.1195,-1.0337 0.2511,-0.9866 0.3732,-0.9306 0.486,-0.8657 0.5895,-0.7919 0.6834,-0.709 0.7682,-0.6174 0.8434,-0.5168 0.9094,-0.4073 0.9659,-0.2889 1.0131,-0.1614 0.7119,-0.0326 z"
     id="path96" />
  <path
     style="fill:#000000;fill-opacity:1;fill-rule:evenodd;stroke:#000000;stroke-width:0;stroke-linecap:round;stroke-linejoin:round;stroke-opacity:1"
     d="m 30.0928,32.1438 1.0007,0.2031 0.9496,0.3279 0.8891,0.4438 0.8197,0.551 0.741,0.6496 0.6532,0.7392 0.5563,0.8203 0.4502,0.8925 0.3349,0.956 0.2106,1.0107 0.0674,0.7141 -0.0181,1.0646 -0.1574,1.0307 -0.292,0.9875 -0.422,0.9351 -0.5475,0.8733 -0.6682,0.8022 -0.7843,0.7219 -0.4791,0.3593 -0.2303,0.1561 -0.1555,0.0725 -0.1161,-0.0212 -0.1117,-0.1248 -0.1426,-0.2384 -0.0397,-0.0698 -0.1947,-0.3424 0.4203,-0.2779 0.7014,-0.5476 0.6321,-0.6623 0.5482,-0.7563 0.4499,-0.8297 0.3372,-0.8826 0.0626,-0.2174 0.0993,-0.5021 0.0596,-0.5896 0.0192,-0.6284 -0.0215,-0.618 -0.0628,-0.5589 -0.063,-0.308 -0.3186,-0.9678 -0.4365,-0.8891 -0.5468,-0.8028 -0.6497,-0.7085 -0.7449,-0.6067 -0.8327,-0.497 -0.9128,-0.3796 -0.4181,-0.126 -0.5484,-0.1071 -0.6359,-0.0592 -0.6733,-0.0114 -0.6602,0.0365 -0.5968,0.0843 -0.2428,0.0559 -0.8395,0.2899 -0.8146,0.4076 -0.7598,0.5057 -0.6752,0.5843 -0.479,0.5363 -0.5487,0.8132 -0.4192,0.8615 -0.2905,0.8962 -0.1625,0.9172 -0.0353,0.9247 0.0909,0.9183 0.2165,0.8985 0.3412,0.865 0.4651,0.8178 0.5883,0.7569 0.2845,0.2974 0.2807,0.2614 0.3017,0.2574 0.2717,0.2106 0.0858,0.0595 0.4203,0.2779 -0.1947,0.3424 -0.1544,0.2651 -0.1155,0.1493 -0.112,0.0433 -0.1436,-0.0527 -0.2104,-0.1389 -0.06,-0.042 -0.8325,-0.6579 -0.7082,-0.7247 -0.5953,-0.8043 -0.3728,-0.6508 -0.4023,-0.8961 -0.2739,-0.8791 -0.1532,-0.8979 -0.0403,-0.9523 0.0108,-0.346 0.1195,-1.0337 0.2511,-0.9866 0.3732,-0.9306 0.486,-0.8657 0.5895,-0.7919 0.6834,-0.709 0.7682,-0.6174 0.8434,-0.5168 0.9094,-0.4073 0.9659,-0.2889 1.0131,-0.1614 0.7119,-0.0326 z"
     id="path97" />
  <path
     style="fill:#000000;fill-opacity:1;fill-rule:evenodd;stroke:#000000;stroke-width:0;stroke-linecap:round;stroke-linejoin:round;stroke-opacity:1"
     d="m 30.0928,65.1438 1.0007,0.2031 0.9496,0.3279 0.8891,0.4438 0.8197,0.551 0.741,0.6496 0.6532,0.7392 0.5563,0.8203 0.4502,0.8925 0.3349,0.956 0.2106,1.0107 0.0674,0.7141 -0.0181,1.0646 -0.1574,1.0307 -0.292,0.9875 -0.422,0.9351 -0.5475,0.8733 -0.6682,0.8022 -0.7843,0.7219 -0.4791,0.3593 -0.2303,0.1561 -0.1555,0.0725 -0.1161,-0.0212 -0.1117,-0.1248 -0.1426,-0.2384 -0.0397,-0.0698 -0.1947,-0.3424 0.4203,-0.2779 0.7014,-0.5476 0.6321,-0.6623 0.5482,-0.7563 0.4499,-0.8297 0.3372,-0.8826 0.0626,-0.2174 0.0993,-0.5021 0.0596,-0.5896 0.0192,-0.6284 -0.0215,-0.618 -0.0628,-0.5589 -0.063,-0.308 -0.3186,-0.9678 -0.4365,-0.8891 -0.5468,-0.8028 -0.6497,-0.7085 -0.7449,-0.6067 -0.8327,-0.497 -0.9128,-0.3796 -0.4181,-0.126 -0.5484,-0.1071 -0.6359,-0.0592 -0.6733,-0.0114 -0.6602,0.0365 -0.5968,0.0843 -0.2428,0.0559 -0.8395,0.2899 -0.8146,0.4076 -0.7598,0.5057 -0.6752,0.5843 -0.479,0.5363 -0.5487,0.8132 -0.4192,0.8615 -0.2905,0.8962 -0.1625,0.9172 -0.0353,0.9247 0.0909,0.9183 0.2165,0.8985 0.3412,0.865 0.4651,0.8178 0.5883,0.7569 0.2845,0.2974 0.2807,0.2614 0.3017,0.2574 0.2717,0.2106 0.0858,0.0595 0.4203,0.2779 -0.1947,0.3424 -0.1544,0.2651 -0.1155,0.1493 -0.112,0.0433 -0.1436,-0.0527 -0.2104,-0.1389 -0.06,-0.042 -0.8325,-0.6579 -0.7082,-0.7247 -0.5953,-0.8043 -0.3728,-0.6508 -0.4023,-0.8961 -0.2739,-0.8791 -0.1532,-0.8979 -0.0403,-0.9523 0.0108,-0.346 0.1195,-1.0337 0.2511,-0.9866 0.3732,-0.9306 0.486,-0.8657 0.5895,-0.7919 0.6834,-0.709 0.7682,-0.6174 0.8434,-0.5168 0.9094,-0.4073 0.9659,-0.2889 1.0131,-0.1614 0.7119,-0.0326 z"
     id="path98" />
  <g
     id="g98"
     style="fill:#000000;fill-opacity:0;stroke:#000000;stroke-width:0.15;stroke-linecap:round;stroke-linejoin:round;stroke-opacity:1" />
  <g
     id="g99"
     style="fill:#000000;fill-opacity:0;stroke:#000000;stroke-width:0.15;stroke-linecap:round;stroke-linejoin:round;stroke-opacity:1" />
  <g
     id="g100"
     style="fill:#000000;fill-opacity:0;stroke:#000000;stroke-width:0.15;stroke-linecap:round;stroke-linejoin:round;stroke-opacity:1" />
  <g
     id="g101"
     style="fill:#000000;fill-opacity:0;stroke:#000000;stroke-width:0.15;stroke-linecap:round;stroke-linejoin:round;stroke-opacity:1" />
  <g
     id="g102"
     style="fill:#000000;fill-opacity:0;stroke:#000000;stroke-width:0.15;stroke-linecap:round;stroke-linejoin:round;stroke-opacity:1" />
  <g
     id="g103"
     style="fill:#000000;fill-opacity:0;stroke:#000000;stroke-width:0.15;stroke-linecap:round;stroke-linejoin:round;stroke-opacity:1" />
  <g
     id="g104"
     style="fill:#000000;fill-opacity:0;stroke:#000000;stroke-width:0.15;stroke-linecap:round;stroke-linejoin:round;stroke-opacity:1" />
  <g
     id="g105"
     style="fill:#000000;fill-opacity:0;stroke:#000000;stroke-width:0.15;stroke-linecap:round;stroke-linejoin:round;stroke-opacity:1" />
  <g
     id="g106"
     style="fill:#000000;fill-opacity:0;stroke:#000000;stroke-width:0.15;stroke-linecap:round;stroke-linejoin:round;stroke-opacity:1" />
  <g
     style="fill:#000000; fill-opacity:1.0000;  stroke:#000000; stroke-width:0.0000; stroke-opacity:1;  stroke-linecap:round; stroke-linejoin:round;"
     id="g108" />
  <g
     style="fill:#000000; fill-opacity:0.0;  stroke:#000000; stroke-width:0.1000; stroke-opacity:1;  stroke-linecap:round; stroke-linejoin:round;"
     id="g116">
    <path
       d="M8.3000 127.2000 A1.6500 1.6500 0.0 0 0 8.3000 123.9000"
       id="path108" />
    <path
       d="M8.3000 127.2000 L6.8000 127.2000 "
       id="path109" />
    <path
       d="M6.8000 123.9000 L8.3000 123.9000 "
       id="path110" />
    <path
       d="M6.8000 123.9000 A1.6500 1.6500 0.0 0 0 6.8000 127.2000"
       id="path111" />
    <path
       d="M8.3000 4.7000 L6.8000 4.7000 "
       id="path112" />
    <path
       d="M6.8000 1.4000 L8.3000 1.4000 "
       id="path113" />
    <path
       d="M6.8000 1.4000 A1.6500 1.6500 0.0 0 0 6.8000 4.7000"
       id="path114" />
    <path
       d="M8.3000 4.7000 A1.6500 1.6500 0.0 0 0 8.3000 1.4000"
       id="path115" />
    <path
       style="fill:#000000; fill-opacity:0.0;  stroke:#000000; stroke-width:0.1000; stroke-opacity:1;  stroke-linecap:round; stroke-linejoin:round;fill:none"
       d="M 0.0500,0.0500 40.0500,0.0500 40.0500,128.5500 0.0500,128.5500 Z"
       id="path116" />
  </g>
  <g
     style="fill:#000000; fill-opacity:0.0;  stroke:#000000; stroke-width:0.2000; stroke-opacity:1;  stroke-linecap:round; stroke-linejoin:round;"
     id="g117">
    <circle
       cx="5.5500"
       cy="92.3000"
       r="3.0500"
       id="circle116" />
    <circle
       cx="15.0500"
       cy="92.3000"
       r="3.0500"
       id="circle117" />
  </g>
  <g
     style="fill:#000000; fill-opacity:0.0;  stroke:#000000; stroke-width:0.1000; stroke-opacity:1;  stroke-linecap:round; stroke-linejoin:round;"
     id="g122">
    <circle
       cx="11.0500"
       cy="21.8000"
       r="3.5000"
       id="circle118" />
    <circle
       cx="11.0500"
       cy="39.8000"
       r="3.5000"
       id="circle119" />
    <circle
       cx="11.0500"
       cy="72.8000"
       r="3.5000"
       id="circle120" />
    <circle
       cx="29.0500"
       cy="72.8000"
       r="3.5000"
       id="circle121" />
    <circle
       cx="29.0500"
       cy="39.8000"
       r="3.5000"
       id="circle122" />
  </g>
  <g
     style="fill:#000000; fill-opacity:0.0;  stroke:#000000; stroke-width:0.2000; stroke-opacity:1;  stroke-linecap:round; stroke-linejoin:round;"
     id="g126">
    <circle
       cx="25.0500"
       cy="92.3000"
       r="3.0500"
       id="circle123" />
    <circle
       cx="15.0500"
       cy="105.8000"
       r="3.0500"
       id="circle124" />
    <circle
       cx="5.5500"
       cy="105.8000"
       r="3.0500"
       id="circle125" />
    <circle
       cx="34.5500"
       cy="92.3000"
       r="3.0500"
       id="circle126" />
  </g>
  <g
     style="fill:#000000; fill-opacity:0.0;  stroke:#000000; stroke-width:0.1000; stroke-opacity:1;  stroke-linecap:round; stroke-linejoin:round;"
     id="g136">
    <circle
       cx="29.0500"
       cy="21.8000"
       r="3.5000"
       id="circle127" />
    <g
       id="g127" />
    <g
       id="g128" />
    <g
       id="g129" />
    <g
       id="g130" />
    <g
       id="g131" />
    <g
       id="g132" />
    <g
       id="g133" />
    <g
       id="g134" />
    <g
       id="g135" />
  </g>
  <metadata
     id="metadata136">
    <rdf:RDF>
      <cc:Work
         rdf:about="">
        <dc:title>SVG Image created as EurorackPlaygroundMkIII_plate_print_template-brd.svg date 2024/07/15 14:34:23 </dc:title>
      </cc:Work>
    </rdf:RDF>
  </metadata>
</svg>
